<?xml version="1.0" encoding="UTF-8" standalone="no"?>
<svg width="200px" height="100px" viewBox="0 0 200 100" version="1.1" xmlns="http://www.w3.org/2000/svg" xmlns:xlink="http://www.w3.org/1999/xlink" xmlns:sketch="http://www.bohemiancoding.com/sketch/ns">
    <!-- Generator: Sketch 3.0.4 (8053) - http://www.bohemiancoding.com/sketch -->
    <title>logo-publisher-pragmatic-bookshelf</title>
    <desc>Created with Sketch.</desc>
    <defs></defs>
    <g id="Page-1" stroke="none" stroke-width="1" fill="none" fill-rule="evenodd" sketch:type="MSPage">
        <g id="logo-publisher-pragmatic-bookshelf" sketch:type="MSArtboardGroup">
            <g id="Group" sketch:type="MSLayerGroup" transform="translate(25.000000, 35.077844)">
                <path d="M61.6428759,14.5254945 L62.0461098,14.5254945 C62.3989395,14.5254945 62.6509607,14.5758987 62.8021734,14.6263029 C62.9533862,14.6767072 63.0541946,14.7775157 63.1045989,14.9287284 C63.1550031,15.0799411 63.2054074,15.3319623 63.2054074,15.7351963 L63.2054074,24.3039174 C63.2054074,24.7071514 63.1045989,24.9591726 62.9029819,25.1607895 C62.7517692,25.261598 62.499748,25.3624065 62.096514,25.3624065 L61.6932801,25.3624065 L61.6932801,26.1184701 L67.8930019,26.1184701 C68.6490655,26.1184701 69.3547249,26.0680659 70.0603843,25.9672574 C70.7660437,25.8664489 71.3708946,25.664832 71.9253412,25.3624065 C72.4293837,25.059981 72.8830218,24.6567471 73.135043,24.2031089 C73.4374685,23.7494708 73.5886812,23.1950241 73.5886812,22.6405774 C73.5886812,22.0861308 73.4374685,21.5316841 73.135043,21.0780459 C72.8326176,20.6244078 72.4293837,20.2715781 71.9253412,20.0195568 C71.5725115,19.8683441 71.1188734,19.7171314 70.4636182,19.6163229 C70.9676606,19.4651102 71.3708946,19.3138975 71.67332,19.1626847 C72.1269582,18.8602593 72.4797879,18.5578338 72.7318091,18.1545999 C72.9838303,17.751366 73.0846388,17.2977278 73.0846388,16.7936854 C73.0846388,16.088026 72.8326176,15.4831751 72.3789794,15.0295369 C71.9253412,14.5254945 71.3204903,14.1726648 70.5140225,14.021452 C69.9595758,13.8702393 69.0018952,13.8198351 67.5401722,13.8198351 L61.6428759,13.8198351 L61.6428759,14.5254945 L61.6428759,14.5254945 L61.6428759,14.5254945 Z M67.5905764,14.7271114 C68.5986613,14.7271114 69.2539164,14.7775157 69.5563419,14.8279199 C70.0603843,14.9287284 70.4636182,15.1807496 70.7156394,15.5335793 C71.0180649,15.886409 71.1692776,16.2896429 71.1692776,16.7936854 C71.1692776,17.3985363 71.0180649,17.9025787 70.6652352,18.2554084 C70.3628097,18.6586423 69.8587673,18.9106635 69.2539164,19.0618762 C68.8506825,19.1626847 68.1450231,19.213089 67.086534,19.213089 L64.8183431,19.213089 L64.8183431,14.6767072 L67.5905764,14.6767072 L67.5905764,14.7271114 L67.5905764,14.7271114 Z M67.288151,20.1203653 C68.5986613,20.1203653 69.5059376,20.2211738 70.0603843,20.3723865 C70.5644267,20.5235993 70.9676606,20.8260247 71.2700861,21.2292587 C71.5725115,21.6324926 71.7237243,22.0861308 71.7237243,22.5901732 C71.7237243,23.1950241 71.5221073,23.6990665 71.1692776,24.1527047 C70.8164479,24.5559386 70.3628097,24.8583641 69.8587673,25.0095768 C69.3547249,25.1607895 68.4978528,25.2111938 67.288151,25.2111938 L66.0784492,25.2111938 C65.624811,25.2111938 65.3223855,25.2111938 65.221577,25.1607895 C65.0703643,25.1103853 64.9695558,25.059981 64.9191516,24.9591726 C64.8687474,24.8583641 64.8687474,24.6567471 64.8687474,24.2535132 L64.8687474,20.1707696 L67.288151,20.1707696 L67.288151,20.1203653 L67.288151,20.1203653 Z M77.2177866,17.9529829 C76.5625315,18.3058126 76.0080848,18.8602593 75.6552551,19.5155144 C75.3024255,20.1707696 75.1008085,20.9772374 75.1008085,21.8341096 C75.1008085,23.0438114 75.4536382,24.1023004 76.1592976,24.9591726 C76.864957,25.8664489 77.9738503,26.3200871 79.3851691,26.3200871 C80.2924454,26.3200871 81.048509,26.1184701 81.7037642,25.7656404 C82.3590193,25.4128107 82.8630618,24.8583641 83.2158914,24.2031089 C83.5687211,23.4974495 83.7703381,22.7413859 83.7703381,21.8341096 C83.7703381,20.9268332 83.5687211,20.1707696 83.2158914,19.4651102 C82.8630618,18.7594508 82.3590193,18.2554084 81.7037642,17.9025787 C81.048509,17.549749 80.2924454,17.348132 79.4355733,17.348132 C78.6291054,17.348132 77.8730418,17.549749 77.2177866,17.9529829 L77.2177866,17.9529829 L77.2177866,17.9529829 Z M80.7964878,18.6082381 C81.1997218,18.8602593 81.5021472,19.2634932 81.7037642,19.7171314 C81.9557854,20.3219823 82.1069981,21.0276417 82.1069981,21.7837053 C82.1069981,22.5901732 82.0061896,23.2454283 81.7541684,23.8502792 C81.5021472,24.4551301 81.1997218,24.8583641 80.7964878,25.1103853 C80.3932539,25.3624065 79.9396157,25.5136192 79.4355733,25.5136192 C78.6795097,25.5136192 78.0242545,25.2111938 77.5706163,24.6567471 C77.0665739,24.001492 76.8145527,23.0942156 76.8145527,21.8845138 C76.8145527,20.6244078 77.1169782,19.6667272 77.7218291,19.011472 C78.1754672,18.4570253 78.7803182,18.2050041 79.4355733,18.2050041 C79.9396157,18.2050041 80.3932539,18.3562169 80.7964878,18.6082381 L80.7964878,18.6082381 L80.7964878,18.6082381 Z M87.3490393,17.9529829 C86.6937841,18.3058126 86.1393375,18.8602593 85.7865078,19.5155144 C85.4336781,20.1707696 85.2320611,20.9772374 85.2320611,21.8341096 C85.2320611,23.0438114 85.5848908,24.1023004 86.2905502,24.9591726 C86.9962096,25.8664489 88.1051029,26.3200871 89.5164217,26.3200871 C90.4236981,26.3200871 91.1797617,26.1184701 91.8350168,25.7656404 C92.490272,25.4128107 92.9943144,24.8583641 93.3471441,24.2031089 C93.6999738,23.4974495 93.9015908,22.7413859 93.9015908,21.8341096 C93.9015908,20.9268332 93.6999738,20.1707696 93.3471441,19.4651102 C92.9943144,18.7594508 92.490272,18.2554084 91.8350168,17.9025787 C91.1797617,17.549749 90.4236981,17.348132 89.5668259,17.348132 C88.8107623,17.348132 88.0546987,17.549749 87.3490393,17.9529829 L87.3490393,17.9529829 L87.3490393,17.9529829 Z M90.9277405,18.6082381 C91.3309744,18.8602593 91.6333999,19.2634932 91.8350168,19.7171314 C92.087038,20.3219823 92.2382508,21.0276417 92.2382508,21.7837053 C92.2382508,22.5901732 92.1374423,23.2454283 91.8854211,23.8502792 C91.6333999,24.4551301 91.3309744,24.8583641 90.9277405,25.1103853 C90.5245065,25.3624065 90.0708684,25.5136192 89.5668259,25.5136192 C88.8107623,25.5136192 88.1555072,25.2111938 87.701869,24.6567471 C87.1978266,24.001492 86.9458054,23.0942156 86.9458054,21.8845138 C86.9458054,20.6244078 87.2482308,19.6667272 87.8530817,19.011472 C88.3067199,18.4570253 88.9115708,18.2050041 89.5668259,18.2050041 C90.0708684,18.2050041 90.5245065,18.3562169 90.9277405,18.6082381 L90.9277405,18.6082381 L90.9277405,18.6082381 Z M96.7242283,14.6263029 L96.7242283,24.001492 C96.7242283,24.4551301 96.6738241,24.8079598 96.5730156,24.9591726 C96.4722071,25.1103853 96.3209944,25.261598 96.1193774,25.3120023 C96.0185689,25.3624065 95.6657392,25.3624065 95.1616968,25.3624065 L95.1616968,26.1184701 L99.6980786,26.1184701 L99.6980786,25.3624065 L99.3452489,25.3624065 C98.942015,25.3624065 98.6899937,25.3120023 98.538781,25.261598 C98.3875683,25.2111938 98.2867598,25.1103853 98.2363556,24.9591726 C98.1859513,24.8079598 98.1355471,24.5559386 98.1355471,24.1023004 L98.1355471,22.9430029 L99.5972701,21.8341096 L101.966269,24.5559386 C102.016674,24.6063429 102.016674,24.6567471 102.067078,24.6567471 C102.268695,24.8583641 102.319099,24.9591726 102.319099,25.059981 C102.319099,25.1607895 102.268695,25.2111938 102.167886,25.261598 C102.067078,25.3120023 101.865461,25.3624065 101.462227,25.3624065 L101.109397,25.3624065 L101.109397,26.1184701 L105.847396,26.1184701 L105.847396,25.3624065 C105.444162,25.3624065 105.192141,25.3120023 104.990524,25.261598 C104.788907,25.2111938 104.637694,25.1103853 104.436077,25.0095768 C104.23446,24.8583641 104.032843,24.6567471 103.730418,24.3543217 L100.706163,21.0780459 L103.27678,19.1122805 C103.680014,18.809855 104.032843,18.6082381 104.335269,18.5074296 C104.637694,18.4066211 105.040928,18.3562169 105.544971,18.3562169 L105.544971,17.6001532 L101.058993,17.6001532 L101.058993,18.3562169 L101.512631,18.3562169 C101.815057,18.3562169 101.966269,18.3562169 102.016674,18.4066211 C102.117482,18.4570253 102.167886,18.5074296 102.167886,18.6082381 C102.167886,18.7594508 101.915865,19.011472 101.411823,19.4147059 L98.1355471,21.9853223 L98.1355471,13.1645799 L97.4802919,13.1645799 C96.6738241,13.6182181 95.9177604,13.8702393 95.1616968,13.9206436 L95.1616968,14.6767072 L96.7242283,14.6767072 L96.7242283,14.6263029 L96.7242283,14.6263029 Z M112.349543,18.1041956 C111.996714,17.8521744 111.643884,17.6505575 111.291054,17.549749 C110.938225,17.4489405 110.534991,17.3985363 110.081352,17.3985363 C109.22448,17.3985363 108.518821,17.6505575 107.964374,18.1041956 C107.409928,18.5578338 107.107502,19.1122805 107.107502,19.6667272 C107.107502,20.1707696 107.258715,20.5740035 107.611545,20.9772374 C107.964374,21.3804714 108.569225,21.6828968 109.426097,22.0357265 L111.492671,22.7917902 C112.097522,22.9934071 112.500756,23.2454283 112.702373,23.4470453 C112.90399,23.6990665 113.004798,23.9510877 113.004798,24.2031089 C113.004798,24.5559386 112.853586,24.8583641 112.500756,25.1103853 C112.147926,25.3624065 111.744692,25.5136192 111.24065,25.5136192 C110.484586,25.5136192 109.728523,25.261598 109.073268,24.7575556 C108.569225,24.4047259 108.065183,23.799875 107.56114,22.9430029 L106.754672,23.2454283 L107.863566,26.1184701 L108.518821,26.1184701 L108.720438,25.463215 C109.426097,26.0176616 110.282969,26.3200871 111.291054,26.3200871 C111.946309,26.3200871 112.500756,26.2192786 113.004798,25.9672574 C113.508841,25.7152362 113.861671,25.4128107 114.113692,25.0095768 C114.365713,24.6063429 114.516926,24.2031089 114.516926,23.7494708 C114.516926,23.2454283 114.365713,22.7917902 114.012883,22.3885562 C113.660054,21.9853223 113.004798,21.6324926 111.996714,21.2796629 L110.282969,20.674812 C109.57731,20.4227908 109.123672,20.1707696 108.922055,19.9691526 C108.720438,19.7675356 108.619629,19.5659187 108.619629,19.2634932 C108.619629,18.9610678 108.770842,18.7090466 109.022863,18.5074296 C109.274885,18.3058126 109.678119,18.1545999 110.131757,18.1545999 C110.736608,18.1545999 111.291054,18.3562169 111.895905,18.7594508 C112.500756,19.1626847 112.90399,19.7675356 113.25682,20.473195 L114.063288,20.2211738 L113.25682,17.4993447 L112.651969,17.4993447 L112.349543,18.1041956 L112.349543,18.1041956 Z M117.54118,14.6263029 L117.54118,23.6486623 C117.54118,24.3543217 117.54118,24.7575556 117.490776,24.9087683 C117.440372,25.059981 117.389968,25.1607895 117.238755,25.2111938 C117.037138,25.3120023 116.734712,25.3624065 116.281074,25.3624065 L116.029053,25.3624065 L116.029053,26.1184701 L120.615839,26.1184701 L120.615839,25.3624065 L120.263009,25.3624065 C119.859775,25.3624065 119.607754,25.3120023 119.456541,25.261598 C119.305329,25.2111938 119.20452,25.1103853 119.154116,25.0095768 C119.103712,24.9087683 119.053308,24.6567471 119.053308,24.3543217 L119.053308,19.9691526 C119.607754,19.5155144 120.162201,19.1122805 120.716648,18.9106635 C121.22069,18.6586423 121.775137,18.5578338 122.228775,18.5578338 C122.682413,18.5578338 123.035243,18.6586423 123.287264,18.8602593 C123.589689,19.0618762 123.740902,19.3643017 123.841711,19.6667272 C123.892115,19.8683441 123.892115,20.3219823 123.892115,20.9772374 L123.892115,24.001492 C123.892115,24.5055344 123.841711,24.8079598 123.791306,24.9591726 C123.740902,25.1103853 123.640094,25.2111938 123.488881,25.3120023 C123.337668,25.3624065 123.085647,25.4128107 122.632009,25.4128107 L122.279179,25.4128107 L122.279179,26.1688744 L126.865965,26.1688744 L126.865965,25.4128107 C126.311518,25.4128107 125.958689,25.3624065 125.807476,25.3120023 C125.656263,25.261598 125.555455,25.1607895 125.454646,25.0095768 C125.404242,24.8583641 125.353838,24.6063429 125.353838,24.1527047 L125.353838,19.8179399 C125.353838,19.1626847 125.101817,18.5578338 124.597774,18.1041956 C124.093732,17.6505575 123.438477,17.3985363 122.632009,17.3985363 C122.077562,17.3985363 121.523115,17.549749 120.918264,17.8017702 C120.313414,18.0537914 119.708563,18.4570253 119.002903,19.011472 L119.002903,13.1645799 L118.297244,13.1645799 C117.944414,13.3661969 117.591585,13.5174096 117.289159,13.6182181 C116.986734,13.7190266 116.533095,13.8198351 115.928245,13.8702393 L115.928245,14.6263029 L117.54118,14.6263029 L117.54118,14.6263029 Z M134.023367,25.1103853 C133.569729,25.3120023 133.166495,25.4128107 132.662453,25.4128107 C132.108006,25.4128107 131.654368,25.261598 131.20073,25.0095768 C130.797496,24.7575556 130.444666,24.3039174 130.192645,23.6990665 C129.940624,23.0942156 129.789411,22.4389605 129.789411,21.6828968 C129.789411,21.5316841 129.789411,21.3300671 129.839815,21.0276417 L136.089941,21.0276417 C136.089941,20.5740035 136.039537,20.1707696 135.938729,19.8683441 C135.787516,19.3643017 135.535495,18.9106635 135.233069,18.5074296 C134.930644,18.1041956 134.52741,17.8017702 134.023367,17.6001532 C133.569729,17.3985363 133.015283,17.2977278 132.360027,17.2977278 C131.503155,17.2977278 130.747092,17.4993447 130.091837,17.8521744 C129.436581,18.2050041 128.932539,18.7594508 128.579709,19.4147059 C128.22688,20.0699611 128.025263,20.876429 128.025263,21.7837053 C128.025263,22.6909817 128.22688,23.4470453 128.579709,24.1023004 C128.932539,24.7575556 129.486986,25.3120023 130.192645,25.7152362 C130.797496,26.0680659 131.55356,26.2696829 132.410432,26.2696829 C132.914474,26.2696829 133.317708,26.2192786 133.670538,26.0680659 C134.023367,25.9672574 134.426601,25.7152362 134.829835,25.4128107 C135.233069,25.1103853 135.636303,24.7071514 136.089941,24.2031089 L135.535495,23.7494708 C134.981048,24.4551301 134.426601,24.9087683 134.023367,25.1103853 L134.023367,25.1103853 L134.023367,25.1103853 Z M129.940624,20.2715781 C130.091837,19.7675356 130.293453,19.3643017 130.49507,19.0618762 C130.696687,18.809855 130.999113,18.5578338 131.301538,18.4066211 C131.603964,18.2554084 131.956793,18.1545999 132.360027,18.1545999 C132.763261,18.1545999 133.065687,18.2554084 133.368112,18.4066211 C133.670538,18.5578338 133.872155,18.7594508 134.073772,19.011472 C134.224984,19.2634932 134.376197,19.6667272 134.426601,20.2211738 L129.940624,20.2211738 L129.940624,20.2715781 L129.940624,20.2715781 Z M138.862175,14.6263029 L138.862175,24.001492 C138.862175,24.4551301 138.81177,24.7575556 138.761366,24.9087683 C138.710962,25.059981 138.610153,25.1607895 138.458941,25.261598 C138.307728,25.3624065 138.106111,25.4128107 137.803686,25.4128107 L137.350047,25.4128107 L137.350047,26.1688744 L141.936833,26.1688744 L141.936833,25.4128107 L141.634408,25.4128107 C141.231174,25.4128107 140.928749,25.3624065 140.777536,25.3120023 C140.626323,25.2111938 140.525515,25.1103853 140.424706,24.9591726 C140.374302,24.8583641 140.323898,24.5559386 140.323898,24.1023004 L140.323898,13.2149842 L139.668643,13.2149842 C138.912579,13.6686224 138.106111,13.9206436 137.299643,13.9710478 L137.299643,14.7271114 L138.862175,14.7271114 L138.862175,14.6263029 L138.862175,14.6263029 Z M142.84411,18.5074296 L144.356237,18.5074296 L144.356237,24.1023004 C144.356237,24.5559386 144.356237,24.8583641 144.305833,25.0095768 C144.255429,25.1607895 144.15462,25.261598 144.053812,25.3120023 C143.902599,25.3624065 143.650578,25.4128107 143.146535,25.4128107 L142.894514,25.4128107 L142.894514,26.1688744 L147.4813,26.1688744 L147.4813,25.4128107 L147.12847,25.4128107 C146.674832,25.4128107 146.422811,25.3624065 146.322002,25.3120023 C146.221194,25.261598 146.120385,25.1607895 146.069981,25.0095768 C146.019577,24.8583641 145.969173,24.6063429 145.969173,24.2031089 L145.969173,18.4570253 L147.632513,18.4570253 L147.632513,17.549749 L145.969173,17.549749 L145.969173,15.8360048 C145.969173,15.3319623 146.019577,14.9791326 146.120385,14.7775157 C146.221194,14.5254945 146.322002,14.3742817 146.473215,14.223069 C146.624428,14.1222605 146.826045,14.021452 146.977258,14.021452 C147.279683,14.021452 147.582109,14.1726648 147.884534,14.4750902 C148.186959,14.7775157 148.388576,14.9287284 148.539789,15.0295369 C148.691002,15.1303454 148.842215,15.1303454 149.043832,15.1303454 C149.245448,15.1303454 149.447065,15.0799411 149.598278,14.9287284 C149.749491,14.7775157 149.799895,14.6263029 149.799895,14.3742817 C149.799895,14.0718563 149.598278,13.7694308 149.245448,13.4670054 C148.892619,13.2149842 148.388576,13.0637714 147.733321,13.0637714 C146.775641,13.0637714 145.969173,13.3661969 145.364322,13.9206436 C144.759471,14.5254945 144.457046,15.2311539 144.457046,16.1888345 L144.457046,17.4993447 L142.944918,17.4993447 L142.944918,18.5074296 L142.84411,18.5074296 L142.84411,18.5074296 Z" id="Shape" fill="#8B8D8E" sketch:type="MSShapeGroup"></path>
                <path d="M37.5496482,1.11796609 L37.8520736,1.11796609 C38.2553076,1.11796609 38.557733,1.16837033 38.7089457,1.21877457 C38.8601585,1.26917881 38.960967,1.3699873 39.0113712,1.52120002 C39.0617754,1.67241275 39.1121797,1.92443396 39.1121797,2.3276679 L39.1121797,10.7955806 C39.1121797,11.1988145 39.0617754,11.4508357 39.0113712,11.6020484 C38.960967,11.7532612 38.8601585,11.8540696 38.7089457,11.9044739 C38.557733,11.9548781 38.3057118,12.0052824 37.8520736,12.0052824 L37.5496482,12.0052824 L37.5496482,12.761346 L42.3380512,12.761346 L42.3380512,12.0052824 L41.9348172,12.0052824 C41.5315833,12.0052824 41.3299663,11.9548781 41.1787536,11.9044739 C41.0779451,11.8540696 40.9771366,11.7028569 40.8763282,11.5516442 C40.8259239,11.4508357 40.7755197,11.1484103 40.7755197,10.6443678 L40.7755197,7.46890058 L43.0437106,7.46890058 C44.3542209,7.46890058 45.2614972,7.31768786 45.8663481,7.06566665 C46.471199,6.81364544 46.9752414,6.36000726 47.3784754,5.75515635 C47.7313051,5.25111393 47.8825178,4.59585879 47.8825178,3.8901994 C47.8825178,3.03332728 47.6304966,2.37807214 47.1768584,1.82362548 C46.7232202,1.26917881 46.1183693,0.91634912 45.4127099,0.66432791 C44.8582633,0.462710942 43.8501784,0.361902458 42.3380512,0.361902458 L37.4488397,0.361902458 L37.4488397,1.11796609 L37.5496482,1.11796609 L37.5496482,1.11796609 Z M42.3380512,1.31958306 C43.346136,1.31958306 44.0517954,1.3699873 44.4046251,1.47079578 C44.9086675,1.62200851 45.3119014,1.92443396 45.6143269,2.3276679 C45.9167524,2.73090183 46.0679651,3.28534849 46.0679651,3.8901994 C46.0679651,4.44464606 45.9167524,4.94868848 45.6647311,5.35192242 C45.4127099,5.75515635 45.1102845,6.05758181 44.7070505,6.25919877 C44.3038166,6.4104115 43.6485615,6.51121998 42.6908809,6.51121998 L40.7755197,6.51121998 L40.7755197,1.31958306 L42.3380512,1.31958306 L42.3380512,1.31958306 Z M50.1507087,5.4527309 L50.1507087,10.6947721 C50.1507087,11.098006 50.1003044,11.4004315 50.0499002,11.5516442 C49.999496,11.7028569 49.8482832,11.8540696 49.6970705,11.9044739 C49.596262,11.9548781 49.3442408,12.0052824 48.9914111,12.0052824 L48.5881772,12.0052824 L48.5881772,12.761346 L53.1749632,12.761346 L53.1749632,12.0052824 L52.8725378,12.0052824 C52.5701123,12.0052824 52.3180911,12.0052824 52.1668784,11.9548781 C52.0156656,11.9044739 51.9148572,11.8540696 51.8140487,11.7532612 C51.7132402,11.6524527 51.6628359,11.5516442 51.6124317,11.4004315 C51.5620275,11.2492187 51.5620275,11.0476018 51.5620275,10.6947721 L51.5620275,6.61202847 C51.8140487,6.30960302 52.1668784,6.00717756 52.6205165,5.65434787 C52.9733462,5.40232666 53.2757717,5.30151818 53.5781971,5.30151818 C53.7798141,5.30151818 54.0822396,5.40232666 54.384665,5.60394363 C54.5358777,5.70475211 54.6366862,5.75515635 54.7374947,5.8055606 C54.8383032,5.85596484 54.8887074,5.85596484 54.9895159,5.85596484 C55.2415371,5.85596484 55.4431541,5.75515635 55.5943668,5.60394363 C55.7455795,5.4527309 55.846388,5.25111393 55.846388,5.04949697 C55.846388,4.74707151 55.6951753,4.4950503 55.4431541,4.29343334 C55.1911329,4.09181637 54.8383032,3.99100788 54.384665,3.99100788 C53.9310268,3.99100788 53.4269844,4.14222061 52.8725378,4.44464606 C52.3180911,4.74707151 51.8140487,5.15030545 51.4108147,5.65434787 L51.4108147,3.99100788 L50.7555596,3.99100788 C50.3019214,4.24302909 49.9490917,4.39424182 49.596262,4.54545455 C49.2434323,4.64626303 48.8906026,4.74707151 48.4369645,4.74707151 L48.4369645,5.50313514 L50.1507087,5.50313514 L50.1507087,5.4527309 L50.1507087,5.4527309 Z M59.5763019,8.12415573 C58.7698341,8.3257727 58.1649832,8.52738967 57.7617492,8.77941088 C57.3585153,9.03143209 57.1064941,9.33385754 56.9048771,9.63628299 C56.7032601,9.93870844 56.6024517,10.2915381 56.6024517,10.6443678 C56.6024517,11.2492187 56.8544729,11.7532612 57.3585153,12.2068993 C57.8625577,12.6605375 58.5178129,12.8621545 59.3242807,12.8621545 C59.9291316,12.8621545 60.4835783,12.761346 61.038025,12.5093248 C61.5924716,12.3077078 62.2477268,11.9044739 62.9533862,11.3500272 C63.0037904,11.6524527 63.1045989,11.9548781 63.3062159,12.1564951 C63.5078328,12.4085163 63.7094498,12.559729 64.0118752,12.6605375 C64.3143007,12.761346 64.6671304,12.8621545 65.0703643,12.8621545 C65.4735983,12.8621545 65.8768322,12.8117502 66.3808746,12.6605375 L66.3808746,11.9044739 C65.9776407,12.0052824 65.6752152,12.1060908 65.423194,12.1060908 C65.1711728,12.1060908 64.9695558,12.0556866 64.7679389,11.9044739 C64.6167261,11.7532612 64.5159177,11.6020484 64.4151092,11.3500272 C64.3647049,11.1988145 64.3647049,10.896389 64.3647049,10.3923466 L64.3647049,6.96485816 C64.3647049,6.15839029 64.2638964,5.60394363 64.1126837,5.30151818 C63.8606625,4.84788 63.4574286,4.54545455 62.9029819,4.29343334 C62.3485353,4.04141213 61.7436843,3.94060364 60.9876207,3.94060364 C60.1811528,3.94060364 59.4754935,4.04141213 58.8706426,4.29343334 C58.2657916,4.54545455 57.8121535,4.84788 57.5601323,5.20070969 C57.2577068,5.55353939 57.1064941,5.95677332 57.1064941,6.36000726 C57.1064941,6.61202847 57.1568983,6.81364544 57.3081111,7.0152624 C57.4593238,7.16647513 57.6609407,7.26728361 57.8625577,7.26728361 C58.2657916,7.26728361 58.5682171,7.0152624 58.6690256,6.46081574 C58.7698341,6.00717756 58.8706426,5.75515635 58.8706426,5.70475211 C58.9210468,5.50313514 59.0722595,5.35192242 59.2234722,5.25111393 C59.374685,5.09990121 59.5763019,4.99909272 59.8283232,4.89828424 C60.0803444,4.79747576 60.3827698,4.79747576 60.6851953,4.79747576 C61.3404504,4.79747576 61.8948971,4.94868848 62.2477268,5.20070969 C62.6005565,5.50313514 62.8021734,5.95677332 62.8021734,6.61202847 L62.8021734,7.56970907 C61.5420674,7.72092179 60.3827698,7.92253876 59.5763019,8.12415573 L59.5763019,8.12415573 L59.5763019,8.12415573 Z M63.0037904,10.4931551 C62.2477268,11.0476018 61.6428759,11.4004315 61.1388334,11.5516442 C60.634791,11.7532612 60.2315571,11.8036654 59.8283232,11.8036654 C59.5763019,11.8036654 59.3242807,11.7532612 59.0722595,11.6020484 C58.8202383,11.5012399 58.6186213,11.299623 58.5178129,11.098006 C58.3666001,10.896389 58.3161959,10.6443678 58.3161959,10.4427509 C58.3161959,10.2411339 58.3666001,9.98911268 58.5178129,9.78749572 C58.6690256,9.58587875 58.8202383,9.38426178 59.1226638,9.23304905 C59.4250892,9.03143209 59.8787274,8.88021936 60.4835783,8.72900663 C60.7860038,8.62819815 61.6428759,8.52738967 63.0037904,8.3257727 L63.0037904,10.4931551 L63.0037904,10.4931551 Z M72.7822134,4.14222061 C72.3789794,3.99100788 71.9253412,3.94060364 71.3708946,3.94060364 C70.1611928,3.94060364 69.2035122,4.29343334 68.4978528,4.94868848 C67.8930019,5.50313514 67.6409807,6.15839029 67.6409807,6.91445392 C67.6409807,7.3680921 67.7417891,7.77132603 67.9938104,8.17455997 C68.1954273,8.57779391 68.548257,8.88021936 68.951491,9.18264481 C68.8506825,9.23304905 68.6994697,9.38426178 68.4978528,9.53547451 C68.1450231,9.78749572 67.9434061,9.93870844 67.7921934,10.0899212 C67.6409807,10.2411339 67.5905764,10.3419424 67.5401722,10.4931551 C67.4897679,10.6443678 67.4393637,10.7451763 67.4393637,10.9467933 C67.4393637,11.2492187 67.5905764,11.5516442 67.8930019,11.7532612 C68.1450231,11.9548781 68.548257,12.1060908 69.1027037,12.2573036 C68.2458316,12.9125587 67.6913849,13.4166011 67.4393637,13.7694308 C67.1873425,14.1222605 67.086534,14.4750902 67.086534,14.8279199 C67.086534,15.1303454 67.1873425,15.3823666 67.4393637,15.6343878 C67.7417891,15.9872175 68.2458316,16.2896429 68.8002782,16.4912599 C69.4051291,16.6928769 70.1611928,16.7936854 71.1188734,16.7936854 C72.9334261,16.7936854 74.2943406,16.4912599 75.201617,15.886409 C75.9072764,15.4327708 76.2601061,14.7775157 76.2601061,14.021452 C76.2601061,13.5678139 76.1088933,13.1645799 75.8568721,12.8117502 C75.6048509,12.4589205 75.201617,12.2068993 74.5967661,12.0052824 C74.0423194,11.8036654 73.4374685,11.6524527 72.8830218,11.5516442 L70.3124055,11.1484103 C69.6571503,11.0476018 69.2035122,10.9467933 69.0018952,10.7955806 C68.8002782,10.6947721 68.749874,10.5435593 68.749874,10.3923466 C68.749874,10.2915381 68.8002782,10.1907297 68.8506825,10.0899212 C68.9010867,10.0395169 69.1027037,9.83789996 69.5059376,9.58587875 C70.1107885,9.83789996 70.6652352,9.93870844 71.2700861,9.93870844 C72.3285752,9.93870844 73.1854473,9.63628299 73.8911067,9.03143209 C74.5967661,8.42658118 74.8991915,7.72092179 74.8991915,6.91445392 C74.8991915,6.30960302 74.6975745,5.8055606 74.3447449,5.35192242 C74.4959576,5.20070969 74.6471703,5.15030545 74.798383,5.15030545 C74.8991915,5.15030545 75.0504042,5.15030545 75.201617,5.20070969 C75.3528297,5.25111393 75.4536382,5.25111393 75.5544467,5.25111393 C75.7560636,5.25111393 75.9072764,5.20070969 76.0584891,5.04949697 C76.2097018,4.89828424 76.2601061,4.74707151 76.2601061,4.59585879 C76.2601061,4.39424182 76.2097018,4.24302909 76.0584891,4.14222061 C75.9072764,3.99100788 75.7560636,3.94060364 75.5040424,3.94060364 C75.2520212,3.94060364 75,3.99100788 74.7479788,4.14222061 C74.4959576,4.29343334 74.1935321,4.54545455 73.9415109,4.84788 C73.5886812,4.54545455 73.1854473,4.29343334 72.7822134,4.14222061 L72.7822134,4.14222061 L72.7822134,4.14222061 Z M72.8326176,5.40232666 C73.2358515,5.8055606 73.4374685,6.30960302 73.4374685,6.96485816 C73.4374685,7.3680921 73.33666,7.77132603 73.1854473,8.07375149 C72.9838303,8.42658118 72.7318091,8.67860239 72.4293837,8.88021936 C72.1269582,9.08183633 71.7237243,9.18264481 71.3708946,9.18264481 C71.0180649,9.18264481 70.6652352,9.08183633 70.3124055,8.88021936 C69.9595758,8.67860239 69.7075546,8.42658118 69.5563419,8.07375149 C69.3547249,7.72092179 69.3043207,7.3680921 69.3043207,6.96485816 C69.3043207,6.36000726 69.5059376,5.8055606 69.9091716,5.40232666 C70.3124055,4.99909272 70.8164479,4.79747576 71.3708946,4.79747576 C71.9253412,4.79747576 72.4293837,4.99909272 72.8326176,5.40232666 L72.8326176,5.40232666 L72.8326176,5.40232666 Z M72.7318091,12.9125587 C73.0846388,12.962963 73.4878727,13.0637714 73.8911067,13.2149842 C74.2943406,13.3661969 74.5967661,13.4670054 74.7479788,13.6686224 C74.8991915,13.8198351 74.9495958,14.0718563 74.9495958,14.2734733 C74.9495958,14.5758987 74.8487873,14.8279199 74.6975745,15.0295369 C74.4455533,15.2815581 74.0423194,15.5335793 73.4374685,15.684792 C72.8830218,15.8360048 72.1773624,15.9368132 71.3708946,15.9368132 C70.7156394,15.9368132 70.1107885,15.886409 69.6571503,15.7351963 C69.2035122,15.5839835 68.9010867,15.4327708 68.6994697,15.1807496 C68.4978528,14.9287284 68.3970443,14.7271114 68.3970443,14.4750902 C68.3970443,14.1726648 68.4978528,13.9206436 68.6994697,13.6182181 C68.9010867,13.3157927 69.2539164,12.9125587 69.8083631,12.4589205 L72.7318091,12.9125587 L72.7318091,12.9125587 Z M78.4274885,5.4527309 L78.4274885,10.6443678 C78.4274885,11.098006 78.4274885,11.3500272 78.3770842,11.4508357 C78.2762757,11.6524527 78.1754672,11.8036654 77.9738503,11.8540696 C77.8226376,11.9044739 77.5706163,11.9548781 77.1673824,11.9548781 L76.9153612,11.9548781 L76.9153612,12.7109418 L81.3509345,12.7109418 L81.3509345,11.9548781 L80.9981048,11.9548781 C80.6956793,11.9548781 80.4940624,11.9044739 80.3428497,11.8540696 C80.1916369,11.7532612 80.0908284,11.6524527 79.99002,11.5516442 C79.9396157,11.4004315 79.8892115,11.2492187 79.8892115,10.9467933 L79.8892115,6.4104115 C80.3932539,5.95677332 80.8972963,5.60394363 81.5021472,5.30151818 C81.9053812,5.09990121 82.2582109,4.99909272 82.6614448,4.99909272 C82.9638702,4.99909272 83.2662957,5.04949697 83.5183169,5.20070969 C83.7703381,5.35192242 83.9215508,5.50313514 84.0223593,5.70475211 C84.1231678,5.90636908 84.173572,6.25919877 84.173572,6.81364544 L84.173572,10.5939636 C84.173572,10.9971975 84.1231678,11.299623 84.0727636,11.4508357 C83.9719551,11.6020484 83.8711466,11.7532612 83.7199339,11.8540696 C83.5687211,11.9548781 83.3166999,11.9548781 82.9638702,11.9548781 L82.7622533,11.9548781 L82.7622533,12.7109418 L87.0970181,12.7109418 L87.0970181,11.9548781 C86.6433799,11.9548781 86.3409545,11.9548781 86.240146,11.9044739 C86.1393375,11.8540696 85.9881248,11.8036654 85.9377205,11.7028569 C85.836912,11.6020484 85.7865078,11.5012399 85.7361036,11.4004315 C85.6856993,11.2492187 85.6856993,10.9971975 85.6856993,10.5939636 L85.6856993,6.36000726 C86.038529,5.95677332 86.5425714,5.65434787 87.1474223,5.30151818 C87.6010605,5.09990121 88.0546987,4.94868848 88.4579326,4.94868848 C88.8107623,4.94868848 89.0627835,4.99909272 89.3148047,5.15030545 C89.5668259,5.30151818 89.7180387,5.4527309 89.7684429,5.60394363 C89.8692514,5.8055606 89.9196556,6.15839029 89.9196556,6.61202847 L89.9196556,10.5435593 C89.9196556,10.9971975 89.8692514,11.299623 89.8188472,11.4508357 C89.7684429,11.6020484 89.6172302,11.7028569 89.4660175,11.8036654 C89.3148047,11.8540696 88.961975,11.9044739 88.4579326,11.9044739 L88.4579326,12.6605375 L92.8935059,12.6605375 L92.8935059,11.9044739 L92.5910805,11.9044739 C92.2382508,11.9044739 92.0366338,11.9044739 91.8854211,11.8540696 C91.7846126,11.8036654 91.6333999,11.7532612 91.5325914,11.6524527 C91.4317829,11.5516442 91.3813787,11.4508357 91.3309744,11.3500272 C91.3309744,11.299623 91.2805702,11.0476018 91.2805702,10.5939636 L91.2805702,6.51121998 C91.2805702,5.90636908 91.1797617,5.40232666 91.028549,5.09990121 C90.826932,4.79747576 90.5749108,4.4950503 90.1716768,4.29343334 C89.7684429,4.09181637 89.3148047,3.99100788 88.8107623,3.99100788 C88.2563157,3.99100788 87.7522732,4.09181637 87.1978266,4.34383758 C86.6937841,4.54545455 86.0889332,4.94868848 85.4840823,5.50313514 C85.3328696,5.15030545 85.1816569,4.89828424 84.9296357,4.69666727 C84.7280187,4.4950503 84.4255933,4.34383758 84.0727636,4.19262485 C83.7199339,4.04141213 83.3671042,3.99100788 83.0142745,3.99100788 C82.5102321,3.99100788 81.9557854,4.14222061 81.3509345,4.39424182 C80.9477006,4.59585879 80.4436581,4.94868848 79.788403,5.4527309 L79.788403,3.94060364 L79.1331478,3.94060364 C78.7299139,4.19262485 78.32668,4.34383758 77.9738503,4.44464606 C77.6210206,4.54545455 77.2681909,4.64626303 76.8145527,4.64626303 L76.8145527,5.40232666 L78.4274885,5.40232666 L78.4274885,5.4527309 L78.4274885,5.4527309 Z M96.9762495,8.12415573 C96.1697816,8.3257727 95.5649307,8.52738967 95.1616968,8.77941088 C94.7584629,9.03143209 94.5064417,9.33385754 94.3048247,9.63628299 C94.1032077,9.93870844 94.0023992,10.2915381 94.0023992,10.6443678 C94.0023992,11.2492187 94.2544205,11.7532612 94.7584629,12.2068993 C95.2625053,12.6605375 95.9177604,12.8621545 96.7242283,12.8621545 C97.3290792,12.8621545 97.8835259,12.761346 98.4379725,12.5093248 C98.9924192,12.3077078 99.6476743,11.9044739 100.353334,11.3500272 C100.403738,11.6524527 100.504546,11.9548781 100.706163,12.1564951 C100.90778,12.4085163 101.109397,12.559729 101.411823,12.6605375 C101.714248,12.761346 102.067078,12.8621545 102.470312,12.8621545 C102.873546,12.8621545 103.27678,12.8117502 103.780822,12.6605375 L103.780822,11.9044739 C103.377588,12.0052824 103.075163,12.1060908 102.823142,12.1060908 C102.57112,12.1060908 102.369503,12.0556866 102.167886,11.9044739 C102.016674,11.7532612 101.915865,11.6020484 101.815057,11.3500272 C101.764653,11.1988145 101.764653,10.896389 101.764653,10.3923466 L101.764653,6.96485816 C101.764653,6.15839029 101.663844,5.60394363 101.512631,5.30151818 C101.26061,4.84788 100.857376,4.54545455 100.302929,4.29343334 C99.7484828,4.04141213 99.1436319,3.94060364 98.3875683,3.94060364 C97.5811004,3.94060364 96.875441,4.04141213 96.2705901,4.29343334 C95.6657392,4.54545455 95.2121011,4.84788 94.9600798,5.20070969 C94.6576544,5.55353939 94.5064417,5.95677332 94.5064417,6.36000726 C94.5064417,6.61202847 94.5568459,6.81364544 94.7080586,7.0152624 C94.8592714,7.16647513 95.0608883,7.26728361 95.2625053,7.26728361 C95.6657392,7.26728361 95.9681647,7.0152624 96.0689732,6.46081574 C96.1697816,6.00717756 96.2705901,5.75515635 96.2705901,5.70475211 C96.3209944,5.50313514 96.4722071,5.35192242 96.6234198,5.25111393 C96.7746326,5.09990121 96.9762495,4.99909272 97.2282707,4.89828424 C97.4802919,4.79747576 97.7827174,4.79747576 98.0851428,4.79747576 C98.740398,4.79747576 99.2948447,4.94868848 99.6476743,5.20070969 C100.000504,5.50313514 100.202121,5.95677332 100.202121,6.61202847 L100.202121,7.56970907 C98.942015,7.72092179 97.7827174,7.92253876 96.9762495,8.12415573 L96.9762495,8.12415573 L96.9762495,8.12415573 Z M100.353334,10.4931551 C99.5972701,11.0476018 98.9924192,11.4004315 98.4883768,11.5516442 C97.9843344,11.7532612 97.5811004,11.8036654 97.1778665,11.8036654 C96.9258453,11.8036654 96.6738241,11.7532612 96.4218029,11.6020484 C96.1697816,11.5012399 95.9681647,11.299623 95.8673562,11.098006 C95.7161435,10.896389 95.6657392,10.6443678 95.6657392,10.4427509 C95.6657392,10.2411339 95.7161435,9.98911268 95.8673562,9.78749572 C96.0185689,9.58587875 96.1697816,9.38426178 96.4722071,9.23304905 C96.7746326,9.03143209 97.2282707,8.88021936 97.8331216,8.72900663 C98.1355471,8.62819815 98.9924192,8.52738967 100.353334,8.3257727 L100.353334,10.4931551 L100.353334,10.4931551 Z M106.401843,2.88211456 C106.200226,3.28534849 105.948205,3.58777395 105.645779,3.78939092 C105.343354,4.04141213 104.94012,4.19262485 104.436077,4.29343334 L104.436077,5.04949697 L105.998609,5.04949697 L105.998609,10.4931551 C105.998609,11.1484103 106.049013,11.6524527 106.200226,11.9044739 C106.351439,12.1564951 106.60346,12.4085163 106.956289,12.6101333 C107.309119,12.8117502 107.712353,12.9125587 108.165991,12.9125587 C108.972459,12.9125587 109.728523,12.6605375 110.534991,12.1060908 L110.534991,11.2492187 C109.879735,11.7532612 109.22448,12.0052824 108.670034,12.0052824 C108.418012,12.0052824 108.216395,11.9548781 108.014779,11.8036654 C107.813162,11.7028569 107.661949,11.5012399 107.611545,11.3500272 C107.56114,11.1988145 107.510736,10.8459848 107.510736,10.3923466 L107.510736,5.04949697 L110.131757,5.04949697 L110.131757,4.14222061 L107.460332,4.14222061 L107.460332,1.11796609 L106.855481,1.11796609 C106.754672,1.92443396 106.60346,2.47888062 106.401843,2.88211456 L106.401843,2.88211456 L106.401843,2.88211456 Z M112.853586,0.261093974 C112.651969,0.462710942 112.55116,0.714732152 112.55116,0.966753362 C112.55116,1.21877457 112.651969,1.47079578 112.853586,1.67241275 C113.055203,1.87402972 113.307224,1.9748382 113.559245,1.9748382 C113.811266,1.9748382 114.063288,1.87402972 114.264905,1.67241275 C114.466522,1.47079578 114.56733,1.21877457 114.56733,0.966753362 C114.56733,0.714732152 114.466522,0.462710942 114.264905,0.261093974 C114.063288,0.0594770056 113.811266,-0.0413314785 113.559245,-0.0413314785 C113.307224,-0.0413314785 113.055203,0.0594770056 112.853586,0.261093974 L112.853586,0.261093974 L112.853586,0.261093974 Z M112.853586,5.4527309 L112.853586,10.6947721 C112.853586,11.1484103 112.803182,11.5012399 112.752777,11.6020484 C112.702373,11.7532612 112.601565,11.8540696 112.450352,11.9044739 C112.299139,11.9548781 112.047118,12.0052824 111.643884,12.0052824 L111.291054,12.0052824 L111.291054,12.761346 L115.827436,12.761346 L115.827436,12.0052824 L115.424202,12.0052824 C115.071372,12.0052824 114.869755,11.9548781 114.718543,11.9044739 C114.56733,11.8540696 114.516926,11.7532612 114.416117,11.6524527 C114.315309,11.5516442 114.315309,11.3500272 114.315309,11.098006 L114.315309,3.99100788 L113.660054,3.99100788 C113.25682,4.24302909 112.853586,4.39424182 112.500756,4.4950503 C112.147926,4.59585879 111.744692,4.69666727 111.24065,4.74707151 L111.24065,5.50313514 L112.853586,5.50313514 L112.853586,5.4527309 L112.853586,5.4527309 Z M123.539285,11.3500272 C123.23686,11.5516442 122.88403,11.7532612 122.5312,11.8540696 C122.178371,11.9548781 121.825541,12.0052824 121.472711,12.0052824 C120.716648,12.0052824 120.111797,11.7028569 119.55735,11.098006 C118.952499,10.3923466 118.650074,9.48507026 118.650074,8.3257727 C118.650074,7.56970907 118.750882,6.91445392 119.002903,6.4104115 C119.254924,5.85596484 119.607754,5.4527309 120.010988,5.20070969 C120.414222,4.89828424 120.918264,4.79747576 121.422307,4.79747576 C121.775137,4.79747576 122.077562,4.84788 122.329583,4.99909272 C122.581604,5.15030545 122.833626,5.30151818 122.984838,5.55353939 C123.085647,5.65434787 123.186455,5.90636908 123.337668,6.25919877 C123.438477,6.56162423 123.539285,6.71283695 123.589689,6.76324119 C123.690498,6.86404968 123.791306,6.96485816 123.892115,7.0152624 C123.992923,7.06566665 124.093732,7.11607089 124.19454,7.11607089 C124.396157,7.11607089 124.597774,7.06566665 124.748987,6.91445392 C124.9002,6.76324119 125.001008,6.56162423 125.001008,6.30960302 C125.001008,5.8055606 124.648178,5.30151818 123.992923,4.79747576 C123.337668,4.29343334 122.480796,4.04141213 121.472711,4.04141213 C120.565435,4.04141213 119.809371,4.24302909 119.103712,4.59585879 C118.398052,4.99909272 117.89401,5.50313514 117.490776,6.20879453 C117.087542,6.91445392 116.885925,7.67051755 116.885925,8.52738967 C116.885925,9.78749572 117.289159,10.896389 118.146031,11.7532612 C119.002903,12.6101333 120.010988,13.0637714 121.22069,13.0637714 C122.783221,13.0637714 124.093732,12.3077078 125.202625,10.8459848 L124.648178,10.3923466 C124.144136,10.7955806 123.791306,11.1988145 123.539285,11.3500272 L123.539285,11.3500272 L123.539285,11.3500272 Z" id="Shape" fill="#8B8D8E" sketch:type="MSShapeGroup"></path>
                <g transform="translate(0.000000, 0.299401)" sketch:type="MSShapeGroup">
                    <rect id="Rectangle-3" stroke="#8B8D8E" stroke-width="0.5" fill="#FFFFFF" x="0" y="10.7935644" width="26.9461078" height="4.49101796"></rect>
                    <rect id="Rectangle-4" fill="#8B8D8E" x="23.0538922" y="11.5689949" width="3.29341317" height="0.299401198"></rect>
                    <rect id="Rectangle-4" fill="#8B8D8E" x="20.5783861" y="12.2905704" width="5.76891931" height="0.299401198"></rect>
                    <rect id="Rectangle-4" fill="#8B8D8E" x="18.2990037" y="12.8893728" width="8.04830171" height="0.299401198"></rect>
                    <rect id="Rectangle-4" fill="#8B8D8E" x="15.562045" y="13.4881752" width="10.7852604" height="0.299401198"></rect>
                    <rect id="Rectangle-4" fill="#8B8D8E" x="13.7462449" y="14.1721688" width="12.6010605" height="0.299401198"></rect>
                    <rect id="Rectangle-3" stroke="#8B8D8E" stroke-width="0.5" fill="#FFFFFF" x="2.39520958" y="15.8339886" width="26.9461078" height="4.49101796"></rect>
                    <rect id="Rectangle-4" fill="#8B8D8E" x="25.4491018" y="16.6094191" width="3.29341317" height="0.299401198"></rect>
                    <rect id="Rectangle-4" fill="#8B8D8E" x="22.9735957" y="17.3309946" width="5.76891931" height="0.299401198"></rect>
                    <rect id="Rectangle-4" fill="#8B8D8E" x="20.6942133" y="17.929797" width="8.04830171" height="0.299401198"></rect>
                    <rect id="Rectangle-4" fill="#8B8D8E" x="17.9572545" y="18.5285994" width="10.7852604" height="0.299401198"></rect>
                    <rect id="Rectangle-4" fill="#8B8D8E" x="16.1414545" y="19.212593" width="12.6010605" height="0.299401198"></rect>
                    <rect id="Rectangle-3" stroke="#8B8D8E" stroke-width="0.5" fill="#FFFFFF" x="2.39520958" y="20.9238089" width="26.9461078" height="4.49101796"></rect>
                    <rect id="Rectangle-4" fill="#8B8D8E" x="25.4491018" y="21.6992395" width="3.29341317" height="0.299401198"></rect>
                    <rect id="Rectangle-4" fill="#8B8D8E" x="22.9735957" y="22.4208149" width="5.76891931" height="0.299401198"></rect>
                    <rect id="Rectangle-4" fill="#8B8D8E" x="20.6942133" y="23.0196173" width="8.04830171" height="0.299401198"></rect>
                    <rect id="Rectangle-4" fill="#8B8D8E" x="17.9572545" y="23.6184197" width="10.7852604" height="0.299401198"></rect>
                    <rect id="Rectangle-4" fill="#8B8D8E" x="16.1414545" y="24.3024134" width="12.6010605" height="0.299401198"></rect>
                    <rect id="Rectangle-3" stroke="#8B8D8E" stroke-width="0.5" fill="#FFFFFF" transform="translate(31.065726, 12.397185) rotate(70.000000) translate(-31.065726, -12.397185) " x="18.7902767" y="10.1516755" width="24.5508982" height="4.49101796"></rect>
                    <rect id="Rectangle-4" fill="#8B8D8E" transform="translate(35.736917, 21.370649) rotate(70.000000) translate(-35.736917, -21.370649) " x="34.0902101" y="21.2209488" width="3.29341317" height="0.299401198"></rect>
                    <rect id="Rectangle-4" fill="#8B8D8E" transform="translate(34.635521, 20.454335) rotate(70.000000) translate(-34.635521, -20.454335) " x="31.7510614" y="20.3046347" width="5.76891931" height="0.299401198"></rect>
                    <rect id="Rectangle-4" fill="#8B8D8E" transform="translate(33.683034, 19.588178) rotate(70.000000) translate(-33.683034, -19.588178) " x="29.6588826" y="19.4384778" width="8.04830171" height="0.299401198"></rect>
                    <rect id="Rectangle-4" fill="#8B8D8E" transform="translate(32.652296, 18.507031) rotate(70.000000) translate(-32.652296, -18.507031) " x="27.2596656" y="18.3573303" width="10.7852604" height="0.299401198"></rect>
                    <rect id="Rectangle-4" fill="#8B8D8E" transform="translate(31.699032, 17.887824) rotate(70.000000) translate(-31.699032, -17.887824) " x="25.3985017" y="17.7381229" width="12.6010605" height="0.299401198"></rect>
                </g>
                <path d="M146.725236,27.9330228 L146.725236,27.4289804 L1.66182786,27.4289804 L1.66182786,27.9330228 L146.725236,27.9330228 Z" id="Shape" fill="#8B8D8E" sketch:type="MSShapeGroup"></path>
            </g>
        </g>
    </g>
</svg>